<svg xmlns="http://www.w3.org/2000/svg" width="30" height="30" viewBox="0 0 30 30">
                            <g transform="translate(-1447 -248)">
                                <path d="M17,2V17.556H15.444V12.111H12.333V6.667A4.667,4.667,0,0,1,17,2ZM15.444,3.968a3.125,3.125,0,0,0-1.556,2.7v3.889h1.556V3.968ZM7.667,11.256v6.3H6.111v-6.3A3.89,3.89,0,0,1,3,7.444V2.778H4.556V8.222H6.111V2.778H7.667V8.222H9.222V2.778h1.556V7.444a3.89,3.89,0,0,1-3.111,3.811Z" transform="translate(1452 253)"></path>
                            </g>
                        </svg>