<svg xmlns="http://www.w3.org/2000/svg" width="24" height="24" viewBox="0 0 24 24">
                                        <g transform="translate(1 2)">
                                            <path d="M9.5,17A7.5,7.5,0,1,1,17,9.5,7.5,7.5,0,0,1,9.5,17Zm0-1.5a6,6,0,1,0-6-6A6,6,0,0,0,9.5,15.5ZM6.875,11H11a.375.375,0,1,0,0-.75H8A1.875,1.875,0,1,1,8,6.5h.75V5h1.5V6.5h1.875V8H8a.375.375,0,0,0,0,.75h3a1.875,1.875,0,0,1,0,3.75h-.75V14H8.75V12.5H6.875Z" transform="translate(2 1)"></path>
                                        </g>
                                    </svg>